<?xml version="1.0" encoding="utf-8"?>
<!-- Generator: Adobe Illustrator 20.1.0, SVG Export Plug-In . SVG Version: 6.00 Build 0)  -->
<svg version="1.1" id="Calque_1" xmlns="http://www.w3.org/2000/svg" xmlns:xlink="http://www.w3.org/1999/xlink" x="0px" y="0px"
	 viewBox="0 0 500 500" style="enable-background:new 0 0 500 500;" xml:space="preserve">
<style type="text/css">
	.st0{fill-rule:evenodd;clip-rule:evenodd;fill:#E79898;}
</style>
<path class="st0" d="M182,173h22l-82.4,128.6H64.2l63.3-98.7C139.4,184.2,160,173,182,173z"/>
<path class="st0" d="M322,173h22l-82.4,128.6h-57.4l63.3-98.7C279.3,184.2,299.9,173,322,173z"/>
<path class="st0" d="M217.1,227h22l-47.6,74.5h-57.4l28.5-44.6C174.5,238.3,195.1,227,217.1,227z"/>
<path class="st0" d="M357.1,227h22l-47.6,74.5H274l28.5-44.6C314.4,238.3,335,227,357.1,227z"/>
<path class="st0" d="M331.2,355.2h-22L391.9,227h27.7c12.8,0,20.5,14.2,13.6,24.9l-47.4,73.4C373.9,343.9,353.3,355.2,331.2,355.2z"
	/>
</svg>
